# xmcd CD database file
#
# Track frame offsets:
#	150
#	21280
#	42357
#	63445
#
# Disc length: 1123 seconds
#
# Revision: 0
# Processed by: cddbd v1.5.1PL2 Copyright (c) Steve Scherf et al.
# Submitted via: CDex 1.51
#
DISCID=2f046104
DTITLE=辛島美登里 - Chang
DYEAR=1997
DGENRE=JPop
TTITLE0=Chang
TTITLE1=虹の地球
TTITLE2=Chang(オリジナル・カラオケ)
TTITLE3=虹の地球(オリジナル・カラオケ)
EXTD=YEAR: 1997
EXTT0=
EXTT1=
EXTT2=
EXTT3=
PLAYORDER=
